# xmcd
#
# Track frame offsets: 
#        150
#        39254
#        73016
#        98456
#        132833
#        159474
#        194852
#        228758
#        267597
#        293313
#
# Disc length: 4247 seconds
#
# Revision: 0
# Processed by: cddbd v1.5.2PL0 Copyright (c) Steve Scherf et al.
# Submitted via: ExactAudioCopy v0.95b4
#
DISCID=8310950a
DTITLE=Various Artist - House 16
DYEAR=1900
DGENRE=
TTITLE0=Energy 52 - Cafe del Mar (original mix)
TTITLE1=Energy 52 - (oliver lieb mix)
TTITLE2=Scooter - Call me manana
TTITLE3=Cherry Moon - House of house
TTITLE4=Fat Boy Slim - Rockafeller Skank
TTITLE5=Schiller - Das Glockenspiel (mike scandale mix)
TTITLE6=Schiller - Das Glockenspiel
TTITLE7=Paffendorf - Smile
TTITLE8=York - The awaking
TTITLE9=York - Yastamba
EXTD=
EXTT0=
EXTT1=
EXTT2=
EXTT3=
EXTT4=
EXTT5=
EXTT6=
EXTT7=
EXTT8=
EXTT9=
PLAYORDER=
